<svg width="406" height="157" viewBox="0 0 406 157" fill="none" xmlns="http://www.w3.org/2000/svg">
<path d="M69.1207 156.623C68.7781 156.629 68.434 156.632 68.0871 156.632C52.5755 156.632 40.6279 152.167 32.2869 143.196C24.8443 135.244 21.123 123.064 21.123 106.689V56.7491H7.03467V28.0755H21.123V5.99174H52.1462V28.0755H66.3271V56.7491H52.1462V104.81C52.1462 113.739 53.5547 119.891 56.3762 123.259C59.4315 126.813 63.6659 128.614 69.1221 128.66C70.588 128.646 71.9672 128.508 73.2595 128.244V156.569C72.2406 156.611 71.207 156.63 70.1558 156.63C69.8073 156.63 69.4633 156.628 69.1207 156.622V156.623ZM79.2745 125.669V104.257H86.0967V75.585H131.301V104.257H117.12V106.689V141.307C117.12 149.33 110.558 155.892 102.535 155.892H80.4831L79.2745 156.064V125.671V125.669ZM299.799 156.632V36.1651H330.821V50.5739C338.616 41.2111 348.961 36.512 361.922 36.512C374.418 36.512 384.87 41.0259 393.377 50.0667C401.163 58.3327 405.088 70.2846 405.088 85.9859V156.633H374.065V87.6282C374.065 79.6798 372.536 73.9133 369.482 70.3155C366.196 66.4384 362.001 64.4829 356.908 64.4829C350.21 64.4829 344.399 67.0221 339.518 72.1563C333.71 78.2595 330.819 87.1651 330.819 98.7936V156.633H299.798L299.799 156.632ZM230.419 5.15808L259.601 18.7891L237.313 49.8902L215.376 39.1159L230.419 5.15808ZM296.185 141.313C287.568 151.537 275.698 156.632 260.617 156.632C245.107 156.632 233.16 152.167 224.817 143.196C217.375 135.244 213.653 123.061 213.653 106.689C213.653 80.4855 213.653 69.7745 213.653 43.5709L237.931 55.3288L244.675 45.5191V104.809C244.675 113.726 246.067 119.911 248.905 123.258C251.971 126.872 256.306 128.661 261.872 128.661C268.607 128.661 274.679 125.569 280.008 119.378L296.184 141.313H296.185ZM218.017 141.228C209.481 151.354 197.726 156.403 182.79 156.403C167.424 156.403 155.605 151.962 147.328 143.091C139.97 135.204 136.272 123.189 136.272 106.971C136.272 83.3776 136.272 29.4355 136.272 5.8403H166.998V105.069C166.998 113.913 168.384 120.057 171.188 123.342C174.242 126.923 178.521 128.699 184.031 128.699C190.705 128.699 196.717 125.634 201.992 119.504L218.016 141.229L218.017 141.228ZM102.981 29.4723C97.0268 29.4723 92.2395 31.4263 88.5285 35.2285C84.4852 39.3732 82.415 44.2002 82.415 49.8035C82.415 55.5597 84.4323 60.3587 88.4065 64.2565C92.3807 68.1513 97.2591 70.1317 102.981 70.1317C108.738 70.1317 113.498 68.2321 117.354 64.4902C121.45 60.519 123.544 55.6376 123.544 49.805C123.544 43.9664 121.467 39.1056 117.354 35.23C113.285 31.3954 108.502 29.4738 102.981 29.4738V29.4723Z" fill="#CC3300"/>
<path d="M62.2927 151.745C61.9501 151.751 61.6075 151.754 61.2591 151.754C45.7489 151.754 33.8014 147.288 25.4604 138.318C18.0178 130.365 14.2965 118.184 14.2965 101.811V51.8693H0.206665V23.1971H14.2965V1.11331H45.3196V23.1971H59.5006V51.8693H45.3196V99.9316C45.3196 108.861 46.7282 115.012 49.5482 118.379C52.6035 121.936 56.8394 123.737 62.2941 123.783C66.7565 123.746 70.4175 122.545 73.2596 120.157V151.073C70.1293 151.527 66.8197 151.755 63.3278 151.755C62.9808 151.755 62.6367 151.752 62.2927 151.746V151.745ZM79.2716 98.5245V70.7081H124.476V99.3773H110.295V101.811C110.295 118.181 106.559 130.353 99.1308 138.318C93.9098 143.912 87.2906 147.762 79.276 149.861V98.5231H79.2731L79.2716 98.5245ZM292.974 151.754V31.2866H323.996V45.6955C331.79 36.3327 342.133 31.6336 355.095 31.6336C367.594 31.6336 378.044 36.1474 386.551 45.1882C394.336 53.4528 398.263 65.4048 398.263 81.1075V151.755H367.24V82.7498C367.24 74.8014 365.711 69.0349 362.656 65.4371C359.37 61.5585 355.175 59.603 350.082 59.603C343.383 59.603 337.574 62.1422 332.691 67.2779C326.886 73.3781 323.994 82.2866 323.994 93.9137V151.755H292.973L292.974 151.754ZM223.591 0.278198L252.775 13.9107L230.487 45.0118L208.55 34.2375L223.591 0.278198ZM289.359 136.435C280.738 146.659 268.869 151.754 253.791 151.754C238.279 151.754 226.333 147.288 217.991 138.318C210.547 130.365 206.825 118.181 206.825 101.811C206.825 75.6071 206.825 64.896 206.825 38.6925L231.103 50.4504L237.847 40.6406V99.9301C237.847 108.847 239.241 115.033 242.08 118.378C245.145 121.992 249.481 123.783 255.045 123.783C261.782 123.783 267.856 120.689 273.181 114.499L289.36 136.435H289.359ZM211.191 136.346C202.654 146.474 190.899 151.523 175.962 151.523C160.596 151.523 148.777 147.082 140.5 138.211C133.142 130.323 129.445 118.306 129.445 102.09C129.445 78.4962 129.445 24.5557 129.445 0.960416H160.17V100.187C160.17 109.033 161.559 115.177 164.36 118.462C167.416 122.042 171.693 123.819 177.205 123.819C183.878 123.819 189.889 120.754 195.166 114.624L211.189 136.348L211.191 136.346ZM96.1535 24.5909C90.1988 24.5909 85.4115 26.5464 81.7005 30.3486C77.6572 34.4933 75.5885 39.3189 75.5885 44.9221C75.5885 50.6798 77.6043 55.4788 81.58 59.3751C85.5542 63.2699 90.4326 65.2504 96.1535 65.2504C101.911 65.2504 106.67 63.3522 110.526 59.6103C114.622 55.6361 116.717 50.7577 116.717 44.9221C116.717 39.0851 114.641 34.2243 110.526 30.3486C106.457 26.5141 101.674 24.5909 96.1535 24.5909Z" fill="#FF6600"/>
<path fill-rule="evenodd" clip-rule="evenodd" d="M110.295 99.3773H79.276V149.864H98.3398C104.916 149.864 110.295 144.486 110.295 137.909V99.3788V99.3773Z" fill="#FF6600"/>
</svg>
